<?xml version="1.0" encoding="UTF-8" standalone="no"?>
<!-- Created with Inkscape (http://www.inkscape.org/) -->

<svg
   width="297mm"
   height="210mm"
   viewBox="0 0 1122.5197 793.70081"
   version="1.1"
   id="svg1"
   sodipodi:docname="logo.svg"
   inkscape:version="1.4 (86a8ad7, 2024-10-11)"
   xmlns:inkscape="http://www.inkscape.org/namespaces/inkscape"
   xmlns:sodipodi="http://sodipodi.sourceforge.net/DTD/sodipodi-0.dtd"
   xmlns="http://www.w3.org/2000/svg"
   xmlns:svg="http://www.w3.org/2000/svg">
  <sodipodi:namedview
     id="namedview1"
     pagecolor="#ffffff"
     bordercolor="#000000"
     borderopacity="0.25"
     inkscape:showpageshadow="2"
     inkscape:pageopacity="0.0"
     inkscape:pagecheckerboard="0"
     inkscape:deskcolor="#d1d1d1"
     inkscape:document-units="mm"
     showguides="false"
     inkscape:zoom="0.68866448"
     inkscape:cx="-107.45436"
     inkscape:cy="294.0474"
     inkscape:window-width="1920"
     inkscape:window-height="991"
     inkscape:window-x="-9"
     inkscape:window-y="-9"
     inkscape:window-maximized="1"
     inkscape:current-layer="layer1" />
  <defs
     id="defs1">
    <rect
       x="104.55019"
       y="434.17369"
       width="727.49505"
       height="232.33375"
       id="rect27" />
    <rect
       x="137.94816"
       y="447.24246"
       width="604.06774"
       height="200.38786"
       id="rect25" />
  </defs>
  <g
     inkscape:label="Layer 1"
     inkscape:groupmode="layer"
     id="layer1">
    <ellipse
       style="fill:#ffffff;fill-opacity:1"
       id="path2"
       cx="371.43478"
       cy="405.44199"
       rx="46.20509"
       ry="48.772041"
       inkscape:transform-center-x="149.89535"
       inkscape:transform-center-y="107.85627" />
    <ellipse
       style="fill:#ffffff;fill-opacity:1"
       id="path2-5"
       cx="726.93445"
       cy="404.05991"
       rx="46.20509"
       ry="48.772041"
       inkscape:transform-center-x="-205.60432"
       inkscape:transform-center-y="106.47419" />
    <path
       style="fill:#ffffff;fill-opacity:1"
       id="path13"
       d="m 438.93028,404.19447 c 10.97336,0.1974 21.94334,0.74198 32.92332,0.93294 22.15396,0.50478 44.3097,0.392 66.4656,0.16163 18.44145,-0.39721 36.88442,-0.12886 55.32367,0.23219 12.59241,0.30544 25.18806,0.36724 37.78292,0.49252 6.38282,0.0511 12.76511,0.14489 19.14811,0.17191 2.86224,0.004 5.72443,0.023 8.58664,0.0374 0,0 -12.04116,-8.74777 -12.04116,-8.74777 v 0 c -2.82453,0.0165 -5.64903,0.0387 -8.47361,0.0445 -6.24356,0.0301 -12.48668,0.11691 -18.73037,0.1242 -12.45135,0.0274 -24.90222,-0.0963 -37.35305,-0.1978 -18.35609,-0.17014 -36.71396,-0.52 -55.06854,4.2e-4 -22.16816,0.3806 -44.34026,0.54682 -66.50307,-0.25947 -11.40114,-0.45466 -22.78297,-1.1556 -34.17192,-1.79222 z"
       inkscape:transform-center-x="-21.659546"
       inkscape:transform-center-y="103.22328" />
    <path
       style="fill:#000000;fill-opacity:1"
       id="path15"
       sodipodi:type="arc"
       sodipodi:cx="370.40802"
       sodipodi:cy="404.41522"
       sodipodi:rx="24.642715"
       sodipodi:ry="24.129326"
       sodipodi:start="0"
       sodipodi:end="6.2654972"
       sodipodi:arc-type="slice"
       d="m 395.05074,404.41522 a 24.642715,24.129326 0 0 1 -24.53375,24.12909 24.642715,24.129326 0 0 1 -24.75072,-23.91569 24.642715,24.129326 0 0 1 24.31485,-24.3406 24.642715,24.129326 0 0 1 24.96576,23.70042 l -24.63886,0.42678 z"
       inkscape:transform-center-x="150.92211"
       inkscape:transform-center-y="106.82951" />
    <path
       style="fill:#000000;fill-opacity:1"
       id="path15-1"
       sodipodi:type="arc"
       sodipodi:cx="725.74701"
       sodipodi:cy="402.13177"
       sodipodi:rx="24.642715"
       sodipodi:ry="24.129326"
       sodipodi:start="0"
       sodipodi:end="6.2654972"
       sodipodi:arc-type="slice"
       d="m 750.38972,402.13177 a 24.642715,24.129326 0 0 1 -24.53374,24.12909 24.642715,24.129326 0 0 1 -24.75072,-23.91569 24.642715,24.129326 0 0 1 24.31485,-24.3406 24.642715,24.129326 0 0 1 24.96576,23.70043 l -24.63886,0.42677 z"
       inkscape:transform-center-x="-204.41688"
       inkscape:transform-center-y="104.54606" />
    <path
       style="fill:#000000;fill-opacity:1"
       id="path16"
       sodipodi:type="arc"
       sodipodi:cx="726.18719"
       sodipodi:cy="402.36166"
       sodipodi:rx="18.995426"
       sodipodi:ry="18.995426"
       sodipodi:start="0"
       sodipodi:end="6.2768314"
       sodipodi:arc-type="slice"
       d="m 745.18262,402.36166 a 18.995426,18.995426 0 0 1 -18.96525,18.99541 18.995426,18.995426 0 0 1 -19.02551,-18.93506 18.995426,18.995426 0 0 1 18.90481,-19.05556 18.995426,18.995426 0 0 1 19.08557,18.87452 l -18.99505,0.12069 z"
       inkscape:transform-center-x="-204.85706"
       inkscape:transform-center-y="104.77595" />
    <path
       style="fill:#000000;fill-opacity:1"
       id="path17"
       d="m 363.72811,397.53036 c 0.72603,0.54948 1.31129,1.22261 1.61367,2.09311 0.069,0.19864 0.10764,0.40657 0.16146,0.60986 0.19379,1.05316 0.0831,2.12014 -0.27344,3.12476 -0.12312,0.22459 -0.0396,0.17462 -0.17981,0.2302 4.38978,2.42396 8.75143,4.8996 13.16936,7.27189 0.052,0.0279 0.0429,-0.11028 0.0696,-0.16298 0.039,-0.077 0.0968,-0.14297 0.14329,-0.21567 -0.0268,-0.10753 0.11266,-0.0601 0.10967,-0.0229 -0.0107,0.13341 -0.23556,0.74763 -0.28765,0.7192 -17.06704,-9.31317 -17.20477,-9.36164 -12.55885,-7.46745 2.38332,5.37624 -17.11095,-8.66458 13.13706,7.99484 0.13635,0.0751 0.30314,-0.0777 0.44483,-0.14217 0.2303,-0.10477 0.4383,-0.25389 0.66642,-0.36333 0.24933,-0.11963 0.50945,-0.21536 0.76418,-0.32304 1.12287,-0.5301 2.21801,-1.11089 3.21295,-1.85823 0.21902,-0.16452 0.44467,-0.32295 0.64233,-0.51261 0.19952,-0.19145 0.36287,-0.41734 0.54431,-0.62601 0.84202,-1.01752 1.1894,-2.12029 1.4484,-3.3843 0.13042,-0.57928 0.14602,-1.19176 0.34073,-1.75488 0.13661,-0.35399 0.48602,-0.46651 0.77145,-0.66593 0.054,-0.0252 0.1025,-0.0795 0.16198,-0.0757 0.0452,0.003 0.0652,0.063 0.0995,0.0926 0.0487,0.0421 0.0929,0.0915 0.1494,0.12231 0.32545,0.17779 0.74405,0.27203 1.09073,0.3937 0.44841,0.17577 0.87809,0.39626 1.27542,0.66899 0.11118,0.0763 0.4407,0.30975 0.32384,0.24246 -13.28965,-7.65269 -16.50369,-9.29785 -12.05217,-7.01173 0.52299,0.34595 0.84865,0.8742 1.16365,1.40029 0.079,0.24964 0.27328,0.29185 0.44744,0.44154 0.10999,0.0945 0.14088,0.20247 0.28791,0.25418 0.0606,0.0213 0.12813,0.009 0.19219,0.0134 0.34017,0.0607 0.48386,0.28718 0.56272,0.60019 0.11963,0.22376 0.001,0.47645 -0.10461,0.68181 -0.18995,0.1483 -0.41202,0.23773 -0.61492,0.38522 -0.23675,0.0656 -0.42669,0.23126 -0.64715,0.33047 -0.22799,0.1026 -0.48098,0.13714 -0.72555,0.17212 -0.22652,0.0846 -0.4609,0.15406 -0.70288,0.17548 -0.13449,0.0119 -0.2723,-0.0185 -0.40499,0.006 -0.0843,0.0158 -0.16212,0.0558 -0.24317,0.0837 -0.0677,0.0149 -0.13671,0.0246 -0.203,0.0448 -0.0828,0.0252 -0.15982,0.0676 -0.24308,0.0911 -0.40406,0.11426 -0.84655,0.11902 -1.26251,0.13832 -0.10163,1.5e-4 -0.22071,0.0574 -0.30488,4.4e-4 -0.0695,-0.047 -0.12775,-0.29045 -0.057,-0.24527 4.20379,2.68458 8.34094,5.4721 12.51574,8.20154 0.0124,0.008 0.0311,0.0177 0.0433,0.009 0.08,-0.0543 0.70281,-0.57146 0.7305,-0.5943 0.35577,-0.31266 0.78672,-0.55281 1.12018,-0.89193 0.34748,-0.35338 0.55955,-0.77213 0.76327,-1.21572 0.22714,-0.61606 0.38136,-1.25613 0.56995,-1.88519 0.093,-0.21568 0.30251,-0.36746 0.53705,-0.38982 0.25525,-0.11756 0.46588,-0.30231 0.70699,-0.44314 0.0598,-0.0349 0.10778,-0.0967 0.1755,-0.11148 0.0271,-0.006 0.0379,0.0406 0.0569,0.0608 -4.27933,-2.60047 -8.51102,-5.28103 -12.83801,-7.80142 -0.0818,-0.0476 -0.0567,0.18133 -0.0981,0.26641 -0.0671,0.13786 -0.14897,0.26809 -0.22657,0.40034 -0.28559,0.48672 -0.58976,0.95823 -0.90912,1.42322 -0.3265,0.46755 -0.64494,0.94053 -0.97335,1.40675 0,0 12.76738,7.42502 12.76738,7.42502 v 0 c 0.26634,-0.4896 0.53953,-0.97408 0.80816,-1.46226 0.20439,-0.32878 0.35371,-0.58556 0.58786,-0.89528 3.66225,-4.84418 9.39926,3.77284 -11.71925,-9.00136 -0.15508,0.33119 -0.58354,0.40559 -0.86514,0.60379 -0.46145,0.38742 -0.87133,0.81858 -1.05065,1.41066 -0.16068,0.58579 -0.27909,1.18552 -0.4182,1.77673 -0.23227,0.70253 -0.78548,1.05169 -1.36026,1.47926 -0.0993,0.0623 -1.42485,0.79161 -1.33936,0.85515 4.00364,2.97526 8.24341,5.61884 12.36512,8.42826 0.2567,-0.25547 0.10489,-0.17619 0.45198,-0.24434 0.64465,-0.0973 1.28484,-0.21837 1.92532,-0.33532 0.47751,-0.0143 0.90073,-0.27615 1.35736,-0.38975 0.56122,-0.24034 1.1139,-0.51188 1.63258,-0.83393 0.45835,-0.25082 0.84553,-0.57163 1.09047,-1.04337 0.21629,-0.45571 0.40495,-0.9197 0.4804,-1.42248 0.001,-0.51507 -0.005,-1.0354 -0.14636,-1.53517 -0.028,-0.088 -0.0339,-0.18634 -0.0839,-0.26392 -0.0745,-0.11546 -0.22675,-0.10827 -0.32815,-0.17253 -0.19875,-0.12595 -0.29104,-0.33558 -0.56633,-0.32642 -0.65501,-0.34226 -0.81053,-0.86157 -1.2071,-1.44046 -3.07846,-4.38759 -0.18528,-0.3559 -13.10737,-7.87973 -0.10869,-0.0633 -0.23228,-0.0967 -0.35019,-0.14046 -0.44601,-0.1655 -0.9049,-0.29367 -1.3676,-0.40294 -1.0518,-0.22554 -1.63609,-0.37056 -2.49771,0.38606 -0.50859,0.38534 -0.93292,0.8431 -1.17884,1.44135 -0.11458,0.29859 -0.15135,0.36175 -0.22141,0.67537 -0.10747,0.48105 -0.0586,0.97756 -0.13424,1.46347 -0.0281,0.98956 -0.20308,1.94429 -0.80833,2.75877 -0.12678,0.14906 -0.24213,0.30866 -0.38034,0.44718 -0.94411,0.94625 -2.19564,1.54533 -3.47087,1.88954 -0.64343,0.0854 -0.83823,0.2119 -1.42687,-0.0465 -0.12011,-0.0527 -0.41681,-0.31649 -0.30333,-0.2507 4.18625,2.42709 8.373,4.85391 12.52615,7.33721 0.0565,0.0338 -0.12927,0.0478 -0.19413,0.0365 -0.0471,-0.008 -0.0746,-0.06 -0.11191,-0.0899 -0.76128,-5.14538 -0.0693,-0.84633 -12.8813,-7.92897 -0.0883,-0.0488 -0.85812,0.90949 -0.96932,1.07133 -0.0742,0.097 -0.14362,0.19776 -0.2208,0.29242 -0.0192,0.0235 -0.0909,0.0491 -0.0646,0.0642 24.98265,14.35881 13.82013,12.13395 12.99524,7.05468 0.0866,-1.24818 0.33523,-2.48976 0.24761,-3.74482 -0.12855,-1.16269 -0.29594,-2.35016 -0.99026,-3.32726 z"
       inkscape:transform-center-x="142.60014"
       inkscape:transform-center-y="106.26912" />
    <path
       style="fill:#ffffff;fill-opacity:1"
       d="m 394.42285,403.86141 c 0,0.96806 0,0.96806 0,0 z"
       id="path18"
       inkscape:transform-center-x="126.90728"
       inkscape:transform-center-y="106.63872" />
    <path
       style="fill:#000000;fill-opacity:1"
       d="m 395.03465,403.90188 c 0,0.0411 0.0125,0.10699 0,0.14439 -0.002,0.007 -0.014,0.009 -0.016,0.016 -0.005,0.0152 0.005,0.0329 0,0.0481 -0.004,0.0114 -0.0131,0.0205 -0.0161,0.0321 -0.005,0.0208 0.01,0.0451 0,0.0642 -0.002,0.005 -0.012,-0.004 -0.016,0 -0.008,0.008 -0.013,0.0691 -0.016,0.0802 -0.0194,0.0774 -0.008,-8e-4 -0.0321,0.0481 -0.0147,0.0295 0.0155,0.19307 0,0.20857 -0.004,0.004 -0.012,-0.004 -0.016,0 -0.0191,0.0193 -0.005,0.0553 -0.0161,0.0802 -0.009,0.0212 -0.10753,0.22938 -0.16043,0.17648 -0.004,-0.004 0.003,-0.012 0,-0.016 -0.0126,-0.0189 -0.0421,-0.0261 -0.0481,-0.0481 -0.01,-0.0396 0.007,-0.0881 0,-0.12835 -0.006,-0.0384 -0.0341,-0.0717 -0.0321,-0.1123 -0.007,-0.0414 0.008,-0.0872 0,-0.12835 -0.0311,-0.1549 -0.002,0.13156 -0.0321,-0.0802 -0.003,-0.0212 0.004,-0.0431 0,-0.0642 -0.009,-0.0547 -0.0562,-0.10424 -0.0642,-0.16044 -0.0165,-0.11529 0.0104,-0.23679 0,-0.35295 -0.14011,0.25221 -0.0696,0.0702 -0.0802,0.17647 -0.009,0.0903 -0.0336,0.16965 -0.0481,0.2567 -0.003,0.0158 0.003,0.0324 0,0.0481 -0.002,0.0117 -0.0137,0.0204 -0.0161,0.0321 -0.006,0.0315 0.005,0.0646 0,0.0963 -0.0121,0.0726 -0.0173,0.12329 0,0.19252 0.016,0.0641 0.0162,2.4e-4 0.0481,0.0642 0.005,0.01 -0.006,0.0235 0,0.0321 0.01,0.0129 0.15842,0.13037 0.19253,0.0963 0.0485,-0.0485 0.01,-0.14156 0.0481,-0.19252 0.007,-0.01 0.0236,-0.008 0.0321,-0.0161 0.007,-0.007 0.0112,-0.0384 0.016,-0.0481 0.0101,-0.0203 0.0345,-0.03 0.0481,-0.0481 0.0685,-0.0914 0.0287,-0.29547 -0.0161,-0.38504 -0.007,-0.0135 -0.023,-0.02 -0.0321,-0.0321 -0.007,-0.01 -0.006,-0.0254 -0.016,-0.0321 -0.019,-0.0127 -0.0523,0.004 -0.0642,-0.0321 -0.0162,-0.0487 0.0305,-0.0224 -0.0321,-0.0642 -0.0216,-0.0144 -0.0256,0.0345 -0.0481,-0.0161 -0.0179,-0.0403 0.0112,-0.11969 -0.0321,-0.12834 -0.0524,-0.0105 -0.0825,0.0687 -0.12834,0.0963 -0.0294,0.0176 -0.1282,0 -0.16044,0"
       id="path19"
       inkscape:transform-center-x="126.6698"
       inkscape:transform-center-y="106.67287" />
    <path
       style="fill:#000000;fill-opacity:1"
       d="m 393.84747,403.2922 c 0.0642,0.0588 0.13873,0.10802 0.19252,0.17648 0.0652,0.0829 0.10709,0.18174 0.16043,0.27273 0.0843,0.14377 0.17104,0.28492 0.27274,0.41713 0.0393,0.0511 0.0768,0.10576 0.12835,0.14439 0.0521,0.0391 0.15858,0.0247 0.17647,0.0963 0.0401,0.16028 -0.0682,0.47322 0,0.60966 0.017,0.034 0.0373,0.0854 0.0642,0.1123 0.0243,0.0243 0.15078,0.088 0.19252,0.0642 0.0297,-0.017 0.0592,-0.0371 0.0802,-0.0642 0.0469,-0.0603 0.0679,-0.41441 0.0481,-0.51339 -0.0123,-0.0615 -0.0446,-0.16588 -0.0642,-0.22461 -0.008,-0.0231 0,-0.0744 0,-0.0963 0,-0.14534 0.0305,-0.3722 -0.0321,-0.49735 -0.0171,-0.0342 -0.11593,-0.10092 -0.14439,-0.1123 -0.0302,-0.0121 -0.0652,-0.006 -0.0963,-0.016 -0.0389,-0.012 -0.0722,-0.0411 -0.1123,-0.0481 -0.11059,-0.0195 -0.22461,0 -0.33691,0 -0.0749,0 -0.15032,-0.009 -0.22461,0 -0.0233,0.003 -0.0481,0.0338 -0.0481,0.0481"
       id="path20"
       inkscape:transform-center-x="126.82118"
       inkscape:transform-center-y="106.6557" />
    <path
       style="fill:#000000;fill-opacity:1"
       d="m 724.35827,399.44177 c 0.0154,0.8461 -0.0588,1.69773 0.0963,2.53487 0.0719,0.38846 0.15899,0.86834 0.41713,1.18721 0.10004,0.12358 0.23191,0.21776 0.35295,0.32087 0.16785,0.14298 0.32561,0.30157 0.51339,0.41713 0.50364,0.30993 1.4233,0.60712 1.92522,0.77008 1.14008,0.37016 2.02187,0.57172 3.20868,0.93052 0.76573,0.2315 1.34895,0.47978 2.14982,0.60965 0.51492,0.0835 1.02109,0.0642 1.54017,0.0642 0.36365,0 0.72784,0.0196 1.09096,0 0.74689,-0.0404 1.42028,-0.33403 2.14982,-0.44922 0.10617,-0.0168 0.21469,-0.0153 0.32087,-0.0321 0.0974,-0.0154 0.19084,-0.0526 0.28878,-0.0642 0.085,-0.01 0.17113,0 0.25669,0 0.12835,-0.0107 0.25743,-0.0147 0.38504,-0.0321 0.39243,-0.0535 0.76442,-0.19809 1.15513,-0.25669 0.53333,-0.08 0.28577,0.0498 1.02678,-0.22461 0.0642,-0.0238 0.10031,-0.0956 0.16044,-0.12835 0.15169,-0.0827 0.32916,-0.1106 0.4813,-0.19252 0.0471,-0.0253 0.0838,-0.0666 0.12835,-0.0963 0.11603,-0.0774 0.24139,-0.14094 0.35295,-0.22461 0.0829,-0.0622 0.17376,-0.22658 0.2567,-0.28878 0.0461,-0.0346 0.11251,-0.0322 0.16043,-0.0642 0.51022,-0.34015 -0.29633,0.0944 0.28878,-0.2567 0.0494,-0.0296 0.11009,-0.0362 0.16044,-0.0642 0.23473,-0.13041 0.44664,-0.30723 0.67382,-0.44922 0.0907,-0.0567 0.18822,-0.11035 0.2567,-0.19252 0.13217,-0.1586 -0.0963,-0.0481 0.12834,-0.16043 0.045,-0.0225 0.11549,-0.0417 0.16044,-0.0642 0.0612,-0.0306 0.10079,-0.0985 0.16043,-0.12834 0.0394,-0.0197 0.0889,-0.0124 0.12835,-0.0321 0.0271,-0.0135 0.0371,-0.0507 0.0642,-0.0642 0.0191,-0.01 0.049,0.0151 0.0642,0 0.0428,-0.0428 -0.0681,-0.0308 0.0321,-0.0642 0.0203,-0.007 0.045,0.01 0.0642,0 0.01,-0.005 -0.005,-0.0225 0,-0.0321 0.0107,-0.0214 0.0535,-0.0107 0.0642,-0.0321 0.01,-0.0191 -0.0119,-0.0464 0,-0.0642 0.0782,-0.11724 0.047,0.0344 0.0963,-0.0642 0.0144,-0.0287 -0.0144,-0.0676 0,-0.0963 0.005,-0.01 0.0273,0.01 0.0321,0 0.0531,-0.10621 -0.0689,-0.48601 -0.12835,-0.54548 -0.008,-0.008 -0.0245,0.008 -0.0321,0 -0.0169,-0.0169 -0.0152,-0.0473 -0.0321,-0.0642 -0.0273,-0.0273 -0.069,-0.0369 -0.0963,-0.0642 -0.0169,-0.0169 -0.013,-0.0498 -0.0321,-0.0642 -0.0271,-0.0203 -0.0642,-0.0214 -0.0963,-0.0321 -0.0428,-0.0321 -0.0861,-0.0634 -0.12835,-0.0963 -0.18765,-0.14595 -0.37461,-0.29223 -0.57756,-0.41713 -0.12221,-0.0752 -0.26434,-0.11492 -0.38504,-0.19252 -0.90086,-0.57912 0.40724,0.14343 -0.67383,-0.41713 -0.16141,-0.0837 -0.31577,-0.18145 -0.4813,-0.25669 -0.62616,-0.28462 -1.29766,-0.48713 -1.9573,-0.67383 -0.58365,-0.16518 -1.29764,-0.36701 -1.89312,-0.4813 -0.73565,-0.14118 -1.47664,-0.25309 -2.214,-0.38504 -0.27875,-0.0499 -0.55415,-0.1188 -0.83426,-0.16044 -1.00681,-0.14966 -2.00495,-0.23293 -3.01616,-0.32086 -0.29417,-0.0256 -1.17517,-0.11738 -1.44391,-0.12835 -0.74538,-0.0304 -1.49989,0 -2.24608,0 -0.26739,0 -0.53512,-0.0134 -0.80217,0 -0.39912,0.0199 -0.27686,0.0448 -0.70592,0.0963 -0.48701,0.0584 -0.36685,-0.004 -0.86634,0.0963 -0.2264,0.0453 -0.44789,0.11287 -0.67383,0.16043 -0.27889,0.0587 -0.55509,0.13669 -0.83425,0.19253 -0.34591,0.0692 -0.11131,-0.0253 -0.44922,0.12834 -0.16119,0.0733 -0.31138,0.17852 -0.44922,0.28878 -0.0236,0.0189 -0.0371,0.0506 -0.0642,0.0642 -0.13872,0.0694 -0.12835,-0.0204 -0.12835,0.0642"
       id="path21"
       inkscape:transform-center-x="-213.20625"
       inkscape:transform-center-y="104.62896" />
    <path
       style="fill:#000000;fill-opacity:1"
       d="m 745.66395,399.3776 c -0.30367,0.48661 -0.646,0.96939 -0.77009,1.54017 -0.0734,0.33753 -0.0499,0.68673 -0.12834,1.02678 -0.0158,0.0684 -0.0902,0.15785 -0.0963,0.22461 -0.009,0.0959 0.007,0.19276 0,0.28878 -0.0175,0.24465 -0.0567,0.0747 -0.0321,0.32087 0.0164,0.16389 0.10636,0.39514 0.22461,0.51339 0.0545,0.0545 0.13229,0.0802 0.19252,0.12835 0.42899,0.34319 -0.18797,-0.0788 0.28878,0.2246 0.40354,0.2568 0.76933,0.3827 1.25139,0.41713 0.064,0.005 0.1287,-0.007 0.19252,0 0.24269,0.0256 0.74177,0.16853 0.99469,0.0963 0.046,-0.0131 0.083,-0.049 0.12835,-0.0642 0.47821,-0.1594 -0.23669,0.14287 0.38504,-0.0963 0.16525,-0.0636 0.32838,-0.1354 0.48131,-0.22461 0.12892,-0.0752 0.24108,-0.26536 0.32086,-0.38504 0.0138,-0.0207 0.0503,-0.11445 0.0642,-0.12835 0.0169,-0.0169 0.0428,-0.0214 0.0642,-0.0321 0.0321,-0.0214 0.069,-0.0369 0.0963,-0.0642 0.0592,-0.0592 0.10999,-0.15735 0.16044,-0.22461 0.0821,-0.10952 0.0462,-0.0188 0.12834,-0.12835 0.0144,-0.0191 0.0122,-0.0509 0.0321,-0.0642 0.0178,-0.0119 0.0439,0.007 0.0642,0 0.0431,-0.0144 0.0995,-0.13158 0.12835,-0.16043 0.0142,-0.0142 0.13691,-0.0727 0.16044,-0.0963 0.0169,-0.0169 0.0122,-0.0509 0.0321,-0.0642 0.0178,-0.0119 0.0464,0.0119 0.0642,0 0.0199,-0.0133 0.0188,-0.0443 0.0321,-0.0642 0.0378,-0.0568 0.10706,-0.075 0.12835,-0.0963 0.0151,-0.0151 -0.01,-0.045 0,-0.0642 0.0215,-0.043 0.0765,-0.0445 0.0963,-0.0642 0.0269,-0.0269 0,-0.25734 0,-0.28878 0,-0.0983 0.0311,-0.25971 0,-0.35296 -0.005,-0.0143 -0.0253,-0.0186 -0.0321,-0.0321 -0.20299,-0.40598 -0.43724,-0.71829 -0.83426,-0.96261 -0.64888,-0.39931 -1.39134,-0.63296 -2.08565,-0.93052 -0.0879,-0.0377 -0.16787,-0.0928 -0.25669,-0.12835 -0.0546,-0.0639 -0.13081,-0.0115 -0.19253,-0.0321 -0.0366,-0.0122 -0.0618,-0.0469 -0.0963,-0.0642 -0.52098,-0.26049 0.14015,0.0876 -0.28878,-0.0963 -0.0817,-0.035 -0.16454,-0.11299 -0.25669,-0.12835 -0.0422,-0.007 -0.0859,0.005 -0.12835,0 -0.17697,-0.0221 -0.32819,-0.0906 -0.51339,-0.0642 -0.12093,0.0173 -0.23036,0.0321 -0.35296,0.0321"
       id="path22"
       inkscape:transform-center-x="-226.1658"
       inkscape:transform-center-y="104.02885" />
    <text
       xml:space="preserve"
       style="text-align:start;writing-mode:lr-tb;direction:ltr;text-anchor:start;fill:#000000;fill-opacity:1"
       x="200.38786"
       y="460.31125"
       id="text26"><tspan
         sodipodi:role="line"
         id="tspan26"></tspan></text>
    <path
       style="fill:#ffffff;fill-opacity:1"
       id="path28"
       d="m 798.6214,405.03498 c 5.68732,0.62653 10.92595,-0.66839 16.22059,-2.5932 5.89033,-2.54789 10.948,-6.59741 15.64873,-10.89612 4.51696,-4.40483 8.21539,-9.5319 11.96522,-14.57823 3.83536,-5.44511 5.54933,-11.71219 6.46031,-18.21114 1.01609,-6.87065 0.45155,-11.24879 -2.22084,-17.63176 -2.72365,-6.18594 -6.96053,-11.4588 -11.66143,-16.24219 -3.9399,-3.55968 -8.3093,-6.63269 -12.91596,-9.26951 -16.57383,-9.48673 -10.92542,-6.84541 -20.83987,-11.16247 -7.85229,-3.29502 -15.97391,-5.80522 -24.05762,-8.43882 -7.65218,-2.03638 -15.37053,-3.85644 -23.17214,-5.21933 -7.74762,-1.37141 -15.53747,-2.48941 -23.33799,-3.51397 -6.70414,-1.04172 -13.32702,-2.49466 -19.96591,-3.87471 -1.47636,-0.62571 -3.08006,-0.87214 -4.57583,-1.43638 -0.75874,-0.28621 -2.91309,-1.4175 -2.21732,-1.00095 23.57719,14.1156 9.94725,5.83493 7.5852,3.97966 -0.80311,-0.6308 -1.52871,-1.35449 -2.29306,-2.03173 -4.74142,-4.59548 -8.60281,-10.00435 -12.71013,-15.15514 -5.59324,-7.86681 -13.19062,-13.71209 -20.94029,-19.29742 -11.47409,-7.94848 -23.66312,-14.69131 -37.07526,-18.60251 -7.25556,-2.11584 -11.45748,-2.85812 -18.91903,-4.44455 -20.25643,-3.91934 -40.74912,-6.31429 -61.27313,-8.26796 -13.90288,-1.26493 -27.79099,-2.84245 -41.72316,-3.7731 -6.83818,-0.45678 -18.55957,-0.93139 -25.30083,-1.22787 -23.55418,-0.93634 -47.12392,-1.5287 -70.69422,-1.04342 -18.55214,0.39547 -37.08186,1.18948 -55.59598,2.42843 -15.08512,1.07775 -29.83503,4.5285 -44.587,7.65633 -7.98596,2.03733 -16.25603,3.28127 -23.95161,6.33841 -1.56443,0.62148 -3.1429,1.24037 -4.60145,2.08079 -1.5221,0.87704 -2.86623,2.0319 -4.29935,3.04785 -6.57339,5.61562 -11.88978,12.55582 -15.01558,20.66528 -0.63746,1.65381 -1.08011,3.37626 -1.62017,5.06439 -2.99038,10.92268 -3.00229,22.27515 -3.08326,33.5056 -0.23172,9.28256 0.24709,18.57816 1.71465,27.75233 0.909,5.68241 1.39999,7.34008 2.70002,12.88889 2.82015,12.17386 7.58113,23.72548 12.73868,35.06144 4.04119,8.83826 9.24532,17.04731 14.48502,25.2045 1.6968,2.69391 3.71865,5.11839 5.86013,7.45913 0,0 13.50793,5.62268 13.50793,5.62268 v 0 c -2.28044,-2.23677 -4.3657,-4.60565 -6.14003,-7.27822 -5.3966,-8.15154 -10.72612,-16.38868 -14.99455,-25.20187 -5.19008,-11.23983 -9.80127,-22.7699 -12.82565,-34.80244 -1.33697,-5.42625 -1.8881,-7.2398 -2.82929,-12.79975 -1.54005,-9.09769 -2.05815,-18.3303 -1.78223,-27.54852 0.23694,-11.05206 0.34737,-22.24367 3.11354,-33.01863 0.52256,-1.63467 0.95455,-3.30111 1.56767,-4.90401 3.01091,-7.8715 8.16502,-14.6371 14.60329,-20.01549 1.39446,-0.93819 2.71493,-1.99703 4.18339,-2.81456 8.39803,-4.67541 18.90974,-5.84641 28.03678,-8.40304 14.67157,-3.05649 29.31834,-6.5009 44.30658,-7.62154 18.42372,-1.30713 36.8692,-2.02329 55.33102,-2.5431 23.41713,-0.60189 46.84376,-0.10189 70.24746,0.83204 22.47966,1.133 44.90747,3.00463 67.29952,5.28827 20.5148,2.11864 41.04211,4.38654 61.27965,8.4658 9.17397,2.05078 18.23417,4.10668 27.01196,7.54882 2.20645,0.86524 6.32182,5.23233 6.50539,2.86941 0.19424,-2.50033 -4.1844,-2.7877 -6.42408,-3.91608 -1.81964,-0.91676 3.43926,2.18578 5.15889,3.27867 7.63337,5.39383 15.16356,11.0148 20.61515,18.74061 4.17327,5.13844 8.03296,10.57025 12.62365,15.34121 7.28298,7.19865 16.69327,12.47043 26.66104,14.86565 6.62633,1.32116 13.23507,2.74209 19.92611,3.71116 7.78459,0.97496 15.54152,2.15834 23.26339,3.54619 7.77365,1.41247 15.48534,3.20241 23.0771,5.39405 8.01624,2.56041 16.04776,5.08915 23.78759,8.42647 7.24398,3.33554 6.24994,3.07516 -3.81736,-2.91823 -1.12555,-0.67007 2.24243,1.35465 3.35885,2.03984 3.36424,2.06474 3.5084,2.07398 6.62905,4.47325 1.02502,0.78807 2.0126,1.62367 3.0189,2.43551 4.74615,4.54089 8.95604,9.7235 11.77735,15.69618 2.84071,6.10377 3.48374,10.21102 2.58904,16.91704 -0.83006,6.26691 -2.32905,12.35432 -6.11767,17.56216 -3.68777,4.97295 -7.32006,10.0291 -11.77931,14.35681 -4.61796,4.14481 -9.5716,8.03581 -15.37239,10.387 -5.38583,1.84892 -10.41121,2.80667 -16.11103,1.83006 z" />
    <path
       style="fill:#ffffff;fill-opacity:1"
       id="path29"
       d="m 335.267,511.1066 c 0.26898,15.11368 -2.26671,30.15922 -4.22102,45.10442 -2.2344,17.82187 -4.63001,35.64385 -6.07506,53.55319 -0.384,4.75915 -1.48199,22.57821 -1.80158,27.67122 -0.39944,6.55279 -0.88326,13.65592 -1.11424,20.25928 -0.0926,2.64665 -0.64806,9.0001 0.98129,11.77905 0.98128,1.67364 2.50711,3.09452 4.2165,4.01211 6.67969,3.5856 13.81449,6.24968 20.72174,9.37451 12.90925,1.3358 22.35964,2.62471 35.82401,2.36552 9.73141,-0.18733 19.46179,-0.81278 29.14302,-1.8173 21.11034,-2.19041 41.53453,-5.35174 61.59812,-12.61079 8.93535,-3.23283 17.21776,-8.04456 25.82664,-12.06683 6.88042,-5.19505 14.26991,-9.777 20.64127,-15.58515 11.80682,-10.76314 19.90559,-21.94337 26.14521,-36.60266 2.57648,-6.05318 4.97859,-12.36626 5.64734,-18.91088 1.7364,-16.99302 -3.19677,-21.30935 -10.65697,-35.66338 -7.31659,-5.09908 -14.03232,-11.19274 -21.94978,-15.29725 -29.79413,-15.44565 -47.33373,-20.07276 -79.94926,-25.52411 -31.98021,-5.34516 -63.71279,-7.48944 -96.09546,-8.47992 -16.1209,-0.49308 -32.25643,-0.17027 -48.38464,-0.25541 -37.49345,1.47858 -41.85786,0.91432 -77.02976,4.84251 -8.86299,0.98986 -17.66915,2.43532 -26.50372,3.65299 0,0 8.68556,6.10829 8.68556,6.10829 v 0 c 8.45409,-1.46628 16.86644,-3.19791 25.36229,-4.39885 34.00527,-4.80685 38.59151,-4.19409 75.0238,-6.17822 16.03036,0.0287 32.06921,-0.43609 48.09109,0.0862 32.18276,1.04918 65.49677,3.72712 97.24152,9.48579 4.55687,0.82664 52.65994,11.37054 63.65394,16.7677 7.6168,3.73923 14.0265,9.55234 21.03975,14.32851 7.52324,13.90256 12.51161,18.25518 11.15717,34.90069 -0.52913,6.50291 -2.75342,12.82278 -5.2098,18.86711 -5.80948,14.29524 -14.07432,25.98074 -25.32922,36.55254 -6.19637,5.82031 -13.4281,10.42926 -20.14215,15.64388 -8.45097,4.05741 -16.55634,8.93156 -25.3529,12.17222 -19.85385,7.31416 -40.67093,10.58815 -61.64777,12.30958 -22.59356,1.8541 -45.25611,1.11229 -67.55519,-2.9656 1.04295,1.39585 4.52405,3.14376 3.12883,4.18754 -1.46726,1.09766 -3.39693,-1.69855 -4.49356,-3.16658 -1.9864,-2.65912 -1.72429,-9.07734 -1.75569,-11.72186 -0.0933,-7.85713 0.16575,-12.45706 0.43692,-20.56333 1.37036,-27.13216 3.94784,-54.17457 7.98418,-81.04829 2.19867,-14.75878 4.98311,-29.49351 6.01895,-44.39108 z" />
    <path
       style="fill:#ffffff;fill-opacity:1"
       id="path30"
       d="m 584.56569,680.31483 c 9.5437,-4.41737 18.40353,-10.1475 26.6545,-16.6526 2.48433,-1.95865 4.85793,-4.05382 7.2869,-6.08073 10.62051,-9.95883 19.00746,-21.9527 25.21655,-35.09858 4.28595,-9.07422 6.15006,-15.03686 9.57887,-24.58587 7.39237,-22.32088 15.97207,-44.21182 26.02547,-65.46544 -10.70144,-5.03607 8.2178,-4.93409 5.81156,-6.61461 -2.85643,-1.99494 -7.31187,-6.11306 -9.78932,-3.66332 -2.34358,2.31736 3.2238,5.75254 4.69269,8.70294 2.3697,4.75978 4.54619,9.61332 6.81928,14.41998 3.17327,6.22136 6.34655,12.44273 9.51982,18.66409 14.92226,27.1725 32.24612,53.28049 55.22724,74.36082 12.49984,11.46596 15.00628,12.18018 28.87204,20.80639 0,0 11.3863,4.40553 11.3863,4.40553 v 0 c -14.17513,-8.57281 -16.88621,-9.35898 -29.7016,-20.8367 -23.17721,-20.75798 -40.7583,-46.60119 -55.23024,-73.956 -10.76642,-22.45788 -6.28111,-12.32289 -14.64059,-32.29458 -1.22158,-2.91849 -1.36133,-6.58003 -3.65452,-8.75974 -4.47614,-4.25464 -10.06452,-7.36644 -15.77775,-9.71096 -2.91966,-1.19812 -4.40947,9.96332 -5.36575,7.80051 -2.27578,5.2653 -5.63608,12.98357 -7.75173,18.1365 -4.72671,11.51251 -9.00451,23.17409 -13.1148,34.91832 -1.50369,4.29647 -2.98455,8.60089 -4.47682,12.90133 -3.31328,8.79007 -5.7299,15.84665 -9.80164,24.25795 -6.26453,12.94111 -14.66335,24.72432 -25.28259,34.44971 -2.44357,1.98519 -4.82656,4.04737 -7.33071,5.95557 -8.40563,6.40525 -17.52163,12.04298 -27.50197,15.62308 z" />
    <path
       style="fill:#ffffff;fill-opacity:1"
       id="path31"
       d="m 633.19947,588.18351 c 8.12077,1.97991 16.53736,2.52736 24.85456,3.03231 4.50389,0.27344 9.01017,0.5921 13.52226,0.62188 6.44689,0.0425 12.89124,-0.27002 19.33686,-0.40503 14.34201,-1.03796 34.12438,-2.03413 48.1611,-4.88314 8.55815,-1.73704 16.98392,-4.16486 25.25376,-6.97002 19.74214,-6.6966 26.54654,-11.11465 44.61003,-20.57696 0,0 -9.29355,-6.08198 -9.29355,-6.08198 v 0 c -17.92696,9.65993 -24.27842,14.02764 -44.07521,20.64293 -8.28419,2.76825 -16.7468,5.0791 -25.32231,6.73785 -15.74949,3.04638 -32.8704,3.40482 -48.82993,4.23719 -16.94565,-0.22205 -18.81582,0.11178 -33.97527,-1.18637 -8.7265,-0.74729 -17.63644,-1.64018 -26.00473,-4.37688 z" />
  </g>
</svg>
